<svg xmlns="http://www.w3.org/2000/svg" id="Layer_2" viewBox="0 0 290.18 82.14"><g id="Layer_2-2"><g><polygon points="39.53 0 0 78.6 43.3 41.8 39.53 0" style="fill:#0068c7"/><polygon points="78.98 82.14 25.56 60.62 .22 82.14 78.98 82.14" style="fill:#3dae2b"/><polygon points="82.09 80.3 42.4 1.34 48.29 66.68 82.09 80.3" style="fill:#f32735"/><polygon points="43.78 45.03 27.95 58.46 45.6 65.56 43.78 45.03" style="fill:#dce3eb"/><g><path d="M116.11,65.92c5.82,0,10.56-1.91,12.86-3.6l.84,5.43c-2.98,1.91-6.81,3.6-13.47,3.6-14.39,0-20.43-7.65-20.43-24.49s5.59-25.33,20.2-25.33c6.43,0,10.03,1.76,13.24,3.52l-.84,5.51c-3.37-1.99-7.42-3.6-12.63-3.6-10.64,0-14.08,6.5-14.08,19.59,0,12.17,2.98,19.36,14.31,19.36Z" style="fill:#003764"/><path d="M137.4,22.22h5.66l16,26.02,16-26.02h5.66v48.37h-5.82V32.63l-15.31,24.87h-1.15l-15.23-24.8v37.88h-5.82V22.22Z" style="fill:#003764"/><path d="M217.08,69.05c-3.44,1.22-8.88,2.14-14.01,2.14-8.88,0-14.77-2.98-14.77-11.33s5.89-11.4,15.92-11.4h7.27v-3.6c0-5.05-3.52-6.66-9.34-6.66-4.29,0-7.81,.77-10.1,1.61l-.84-5.13c2.98-.84,6.73-1.61,11.17-1.61,8.42,0,14.69,3.06,14.69,12.24v23.72Zm-5.59-16.15h-7.19c-6.81,0-10.41,1.68-10.41,6.89s3.6,6.58,9.03,6.58c2.68,0,6.2-.31,8.57-1.07v-12.4Z" style="fill:#003764"/><path d="M225.44,18.39h5.59v52.19h-5.59V18.39Zm22.58,15.31h7.12l-15.31,17.45,16.84,19.44h-7.12l-16.84-19.44,15.31-17.45Z" style="fill:#003764"/><path d="M289.57,54.36h-25.18v.31c0,7.81,4.52,11.25,12.17,11.25,4.29,0,8.8-1.07,11.56-2.53l.84,5.28c-3.6,1.61-7.96,2.53-12.47,2.53-11.79,0-17.76-5.89-17.76-18.98,0-10.64,3.9-19.13,16-19.13,9.72,0,15.46,5.43,15.46,16.15,0,1.53-.15,3.52-.61,5.13Zm-25.18-4.74h20.43v-.46c0-7.88-3.98-11.1-10.25-11.1s-10.18,3.14-10.18,11.1v.46Z" style="fill:#003764"/></g></g></g></svg>