<svg xmlns="http://www.w3.org/2000/svg" viewBox="0 0 500 500"><g id="freepik--background-complete--inject-257"><rect x="393.5" y="250.1" width="86.72" height="61.82" style="fill:#ebebeb"></rect><path d="M480.9,259.27c0,.21-19.57.38-43.71.38s-43.72-.17-43.72-.38,19.57-.38,43.72-.38S480.9,259.06,480.9,259.27Z" style="fill:#fff"></path><path d="M400.58,254.76a1.18,1.18,0,1,1-1.17-1A1.1,1.1,0,0,1,400.58,254.76Z" style="fill:#fff"></path><path d="M404.84,254.76a1.18,1.18,0,1,1-1.17-1A1.11,1.11,0,0,1,404.84,254.76Z" style="fill:#fff"></path><ellipse cx="407.92" cy="254.76" rx="1.17" ry="1.03" style="fill:#fff"></ellipse><path d="M425.58,283.93c0,3.71-2.69,5.95-7.13,5.95h-4.68v5.5h-1.84V278h6.52C422.89,278,425.58,280.19,425.58,283.93Zm-1.85,0c0-2.79-1.84-4.39-5.33-4.39h-4.63v8.72h4.63C421.89,288.26,423.73,286.67,423.73,283.93Z" style="fill:#fff"></path><path d="M444.12,278v17.43H442.3v-8H431.39v8h-1.84V278h1.84v7.77H442.3V278Z" style="fill:#fff"></path><path d="M463.43,283.93c0,3.71-2.68,5.95-7.12,5.95h-4.68v5.5h-1.84V278h6.52C460.75,278,463.43,280.19,463.43,283.93Zm-1.84,0c0-2.79-1.84-4.39-5.33-4.39h-4.63v8.72h4.63C459.75,288.26,461.59,286.67,461.59,283.93Z" style="fill:#fff"></path><rect x="173.11" y="36" width="128.75" height="91.78" style="fill:#ebebeb"></rect><path d="M302.87,49.62c0,.22-29.07.4-64.91.4s-64.91-.18-64.91-.4,29.06-.41,64.91-.41S302.87,49.39,302.87,49.62Z" style="fill:#fff"></path><path d="M183.61,42.92a1.74,1.74,0,1,1-1.73-1.52A1.63,1.63,0,0,1,183.61,42.92Z" style="fill:#fff"></path><path d="M189.93,42.92a1.74,1.74,0,1,1-1.73-1.52A1.63,1.63,0,0,1,189.93,42.92Z" style="fill:#fff"></path><path d="M196.25,42.92a1.75,1.75,0,1,1-1.73-1.52A1.63,1.63,0,0,1,196.25,42.92Z" style="fill:#fff"></path><rect x="202.8" y="327.54" width="128.75" height="91.78" style="fill:#ebebeb"></rect><path d="M332.56,341.16c0,.22-29.06.4-64.9.4s-64.92-.18-64.92-.4,29.06-.41,64.92-.41S332.56,340.93,332.56,341.16Z" style="fill:#fff"></path><path d="M213.31,334.46a1.75,1.75,0,1,1-1.74-1.52A1.64,1.64,0,0,1,213.31,334.46Z" style="fill:#fff"></path><path d="M219.63,334.46a1.75,1.75,0,1,1-1.74-1.52A1.64,1.64,0,0,1,219.63,334.46Z" style="fill:#fff"></path><path d="M225.94,334.46a1.74,1.74,0,1,1-1.73-1.52A1.63,1.63,0,0,1,225.94,334.46Z" style="fill:#fff"></path><path d="M443.61,160.18a5.14,5.14,0,0,1,.85-1l2.47-2.48c2.1-2.08,5-4.92,8.3-8l.07-.07v.42c-3.29-3.06-6.24-5.84-8.35-7.88l-2.49-2.43a5.23,5.23,0,0,1-.85-1,5.52,5.52,0,0,1,1,.79l2.61,2.29c2.19,2,5.18,4.7,8.47,7.75l.23.21-.23.21-.07.07c-3.26,3.12-6.24,5.91-8.41,7.91l-2.6,2.35A5.81,5.81,0,0,1,443.61,160.18Z" style="fill:#ebebeb"></path><path d="M418.23,137.79a5.67,5.67,0,0,1-.85,1l-2.47,2.48c-2.1,2.08-5,4.92-8.3,8l-.07.07v-.42c3.29,3.06,6.24,5.84,8.36,7.88l2.48,2.43a5.1,5.1,0,0,1,.86,1,5.33,5.33,0,0,1-1-.79l-2.61-2.3c-2.18-2-5.18-4.69-8.47-7.74l-.22-.21.22-.21.08-.08c3.26-3.11,6.23-5.9,8.41-7.9l2.59-2.35A5.59,5.59,0,0,1,418.23,137.79Z" style="fill:#ebebeb"></path><path d="M424.74,165.45c-.15-.06,2.52-7.54,5.95-16.72s6.34-16.58,6.49-16.52-2.52,7.54-5.95,16.72S424.89,165.51,424.74,165.45Z" style="fill:#ebebeb"></path><path d="M472.44,181.47s0-.43,0-1.25,0-2,0-3.6c0-3.17,0-7.77-.06-13.64,0-11.75-.08-28.53-.13-48.77l.24.24-82.53,0h0l.29-.29c0,24.32,0,47.28,0,67.26l-.25-.26,59.6.13,16.9.07,4.48,0,1.16,0h0l-1.13,0-4.44,0-16.83.07-59.77.13h-.26v-.26c0-20,0-42.94,0-67.26v-.28h.3l82.53,0h.24v.24c-.05,20.3-.09,37.14-.12,48.92,0,5.84-.05,10.43-.06,13.58,0,1.55,0,2.74,0,3.56S472.44,181.47,472.44,181.47Z" style="fill:#ebebeb"></path><path d="M473.09,124.19c0,.16-18.63.29-41.61.29s-41.62-.13-41.62-.29,18.63-.29,41.62-.29S473.09,124,473.09,124.19Z" style="fill:#ebebeb"></path><path d="M396.64,119.28a1.12,1.12,0,1,1-1.12-1.11A1.12,1.12,0,0,1,396.64,119.28Z" style="fill:#ebebeb"></path><path d="M400.69,119.28a1.12,1.12,0,1,1-1.12-1.11A1.12,1.12,0,0,1,400.69,119.28Z" style="fill:#ebebeb"></path><path d="M404.74,119.28a1.12,1.12,0,1,1-1.11-1.11A1.12,1.12,0,0,1,404.74,119.28Z" style="fill:#ebebeb"></path><path d="M39.8,282.21a9.59,9.59,0,0,1,10-9.74,9.17,9.17,0,0,1,6.83,2.66l-.88.91a8,8,0,0,0-5.9-2.28,8.45,8.45,0,1,0,0,16.9,8,8,0,0,0,5.9-2.3l.88.91A9.18,9.18,0,0,1,49.76,292,9.59,9.59,0,0,1,39.8,282.21Z" style="fill:#ebebeb"></path><path d="M59.22,289.35l.64-1.05a9.06,9.06,0,0,0,6.33,2.42c3.85,0,5.55-1.67,5.55-3.76,0-5.76-12-2.3-12-9.38,0-2.72,2.08-5.11,6.8-5.11a10.31,10.31,0,0,1,5.79,1.73l-.52,1.13a9.47,9.47,0,0,0-5.27-1.62c-3.73,0-5.4,1.73-5.4,3.84,0,5.76,12,2.36,12,9.33,0,2.71-2.17,5.07-6.92,5.07A9.89,9.89,0,0,1,59.22,289.35Z" style="fill:#ebebeb"></path><path d="M75.93,289.35l.63-1.05a9.11,9.11,0,0,0,6.34,2.42c3.85,0,5.55-1.67,5.55-3.76,0-5.76-12-2.3-12-9.38,0-2.72,2.08-5.11,6.8-5.11a10.31,10.31,0,0,1,5.79,1.73l-.52,1.13a9.47,9.47,0,0,0-5.27-1.62c-3.73,0-5.4,1.73-5.4,3.84,0,5.76,12,2.36,12,9.33,0,2.71-2.17,5.07-6.92,5.07A9.89,9.89,0,0,1,75.93,289.35Z" style="fill:#ebebeb"></path><path d="M106.2,307.19s0-.36,0-1,0-1.66,0-2.93c0-2.57,0-6.32-.07-11.11,0-9.6-.08-23.38-.14-40.2l.27.27-85.55.07h0l.34-.34c0,19.62,0,38.31,0,55.26l-.31-.32,61.55.16,17.65.08,4.71,0,1.22,0a2.14,2.14,0,0,1,.43,0h-.39l-1.19,0-4.65,0-17.58.08-61.75.16h-.31v-.31c0-16.95,0-35.64,0-55.26v-.34h.35l85.55.07h.27v.27c0,16.89-.1,30.73-.14,40.37,0,4.76,0,8.49-.06,11.05,0,1.24,0,2.2,0,2.87S106.2,307.19,106.2,307.19Z" style="fill:#ebebeb"></path><path d="M106.2,260.13c0,.19-19.16.34-42.8.34s-42.79-.15-42.79-.34,19.16-.34,42.79-.34S106.2,259.94,106.2,260.13Z" style="fill:#ebebeb"></path><path d="M27,256.1a1.05,1.05,0,1,1-1-.92A1,1,0,0,1,27,256.1Z" style="fill:#ebebeb"></path><path d="M30.77,256.1a1.05,1.05,0,1,1-1-.92A1,1,0,0,1,30.77,256.1Z" style="fill:#ebebeb"></path><path d="M34.58,256.1a1.05,1.05,0,1,1-1-.92A1,1,0,0,1,34.58,256.1Z" style="fill:#ebebeb"></path><rect x="22.21" y="112.77" width="66.64" height="47.5" style="fill:#ebebeb"></rect><path d="M44.69,134.83v9.43H42.51v-3.87H38.22v3.87H36v-9.43h2.18v3.71h4.29v-3.71Z" style="fill:#fff"></path><path d="M48.88,136.6h-3v-1.77h8.22v1.77h-3v7.66H48.88Z" style="fill:#fff"></path><path d="M55.25,134.83h2.18v7.65h4.73v1.78H55.25Z" style="fill:#fff"></path><path d="M72,144.26V138.6l-2.77,4.66h-1l-2.76-4.54v5.54H63.38v-9.43h1.81l3.53,5.86,3.47-5.86H74l0,9.43Z" style="fill:#fff"></path><path d="M89.38,119.82c0,.11-15,.21-33.6.21s-33.6-.1-33.6-.21,15-.21,33.6-.21S89.38,119.7,89.38,119.82Z" style="fill:#fff"></path><path d="M27.65,116.35a.9.9,0,1,1-.89-.79A.84.84,0,0,1,27.65,116.35Z" style="fill:#fff"></path><path d="M30.92,116.35a.9.9,0,1,1-.89-.79A.84.84,0,0,1,30.92,116.35Z" style="fill:#fff"></path><path d="M34.19,116.35a.9.9,0,1,1-.89-.79A.84.84,0,0,1,34.19,116.35Z" style="fill:#fff"></path></g><g id="freepik--Floor--inject-257"><path d="M474.23,478.06c0,.14-100.42.26-224.26.26s-224.28-.12-224.28-.26,100.39-.26,224.28-.26S474.23,477.91,474.23,478.06Z" style="fill:#263238"></path></g><g id="freepik--Codes--inject-257"><polygon points="222.02 287.4 223.37 380.85 404.57 373.31 399.1 281.01 222.02 287.4" style="fill:#fafafa"></polygon><path d="M222,287.4l.83,0,2.5-.11,9.71-.38,36.56-1.39,127.48-4.71h.23l0,.23c1.69,28.48,3.55,59.71,5.48,92.3l0,.27h-.27l-2.56.11L223.38,381h-.2v-.2c-.37-28.81-.67-52.19-.88-68.37-.1-8.07-.17-14.34-.22-18.61,0-2.12,0-3.73,0-4.83s0-1.64,0-1.64,0,.58,0,1.68.06,2.73.1,4.86c.07,4.28.18,10.57.31,18.65.26,16.16.64,39.5,1.1,68.25l-.21-.19L402,373.15l2.56-.1-.25.27c-1.92-32.59-3.77-63.82-5.45-92.3l.25.23-127.32,4.48L235.17,287l-9.76.32-2.53.08Z" style="fill:#263238"></path><path d="M246.44,311.36a11.69,11.69,0,0,1-3.42.39,11.52,11.52,0,0,1-3.43-.12,11.7,11.7,0,0,1,3.41-.4A11.4,11.4,0,0,1,246.44,311.36Z" style="fill:#263238"></path><path d="M369,306.7c0,.14-26.18,1.3-58.48,2.58s-58.51,2.21-58.52,2.07,26.18-1.3,58.49-2.59S369,306.56,369,306.7Z" style="fill:#263238"></path><path d="M388.32,305.72a48,48,0,0,1-6.93.54,45.52,45.52,0,0,1-7,0,47.28,47.28,0,0,1,6.93-.53A46.38,46.38,0,0,1,388.32,305.72Z" style="fill:#e0e0e0"></path><path d="M253.76,317.9a9.07,9.07,0,0,1-3,.37,8.67,8.67,0,0,1-3-.14,9.23,9.23,0,0,1,3-.38A8.8,8.8,0,0,1,253.76,317.9Z" style="fill:#e0e0e0"></path><path d="M312.86,315.12c0,.14-12.06.74-26.95,1.33s-27,1-27,.81,12.06-.74,27-1.33S312.86,315,312.86,315.12Z" style="fill:#263238"></path><path d="M387.33,312.16c0,.14-15.45.87-34.52,1.63s-34.55,1.26-34.55,1.12,15.45-.88,34.53-1.64S387.33,312,387.33,312.16Z" style="fill:#92E3A9"></path><path d="M255.66,324a18.4,18.4,0,0,1-4.34.43,17.76,17.76,0,0,1-4.37-.09,19.19,19.19,0,0,1,4.35-.43A17.66,17.66,0,0,1,255.66,324Z" style="fill:#263238"></path><path d="M293.43,322.72c0,.14-7.24.55-16.17.9s-16.19.53-16.19.39,7.23-.55,16.17-.91S293.42,322.58,293.43,322.72Z" style="fill:#e0e0e0"></path><path d="M248,330.07a14.17,14.17,0,0,1-3.83.42,14.76,14.76,0,0,1-3.85-.11,14,14,0,0,1,3.83-.41A14.53,14.53,0,0,1,248,330.07Z" style="fill:#263238"></path><path d="M298,328.09c0,.14-10,.65-22.39,1.15s-22.41.77-22.41.63,10-.66,22.39-1.15S298,327.94,298,328.09Z" style="fill:#92E3A9"></path><path d="M381.61,325c0,.14-18.1,1-40.44,1.86s-40.46,1.5-40.46,1.35,18.1-1,40.44-1.87S381.6,324.83,381.61,325Z" style="fill:#263238"></path><path d="M247.47,337.35a11.77,11.77,0,0,1-3.41.4,11.36,11.36,0,0,1-3.44-.13,23.13,23.13,0,0,1,6.85-.27Z" style="fill:#e0e0e0"></path><path d="M302.43,335c0,.15-10.9.7-24.36,1.23s-24.38.85-24.39.71,10.9-.69,24.37-1.23S302.43,334.81,302.43,335Z" style="fill:#263238"></path><path d="M390.39,331.46c0,.14-18.11,1-40.44,1.86s-40.46,1.5-40.47,1.35,18.1-1,40.45-1.87S390.38,331.31,390.39,331.46Z" style="fill:#92E3A9"></path><path d="M247.32,344a11.88,11.88,0,0,1-3.42.4,11.32,11.32,0,0,1-3.43-.13,23.13,23.13,0,0,1,6.85-.27Z" style="fill:#92E3A9"></path><path d="M368,338.32c0,.14-25.53,1.28-57,2.53s-57.05,2.15-57.06,2,25.53-1.27,57-2.52S368,338.18,368,338.32Z" style="fill:#92E3A9"></path><path d="M255.43,349.41a26,26,0,0,1-7.26.29,12.46,12.46,0,0,1,3.62-.41A13,13,0,0,1,255.43,349.41Z" style="fill:#263238"></path><path d="M304.82,348.09c0,.14-9.6.64-21.46,1.11s-21.47.74-21.48.59,9.6-.64,21.46-1.11S304.82,347.94,304.82,348.09Z" style="fill:#e0e0e0"></path><path d="M384.48,344.92c0,.14-17.08.94-38.16,1.78s-38.17,1.4-38.18,1.25,17.08-.93,38.16-1.77S384.47,344.78,384.48,344.92Z" style="fill:#263238"></path><path d="M256.53,356.19a13.28,13.28,0,0,1-3.73.41,13.94,13.94,0,0,1-3.74-.11,13.62,13.62,0,0,1,3.72-.41A14,14,0,0,1,256.53,356.19Z" style="fill:#263238"></path><path d="M274.38,355.7a42.87,42.87,0,0,1-6.63.52,43.06,43.06,0,0,1-6.65,0,41.76,41.76,0,0,1,6.63-.53A42.29,42.29,0,0,1,274.38,355.7Z" style="fill:#e0e0e0"></path><path d="M367.49,351.36c0,.14-14.76.84-33,1.57s-33,1.19-33,1.05,14.76-.85,33-1.57S367.48,351.21,367.49,351.36Z" style="fill:#92E3A9"></path><polygon points="251.5 177.89 237.03 275.2 426.57 298.16 436.57 201.33 251.5 177.89" style="fill:#fafafa"></polygon><path d="M251.5,177.89l.87.09,2.61.32,10.16,1.25,38.22,4.78L436.6,201.09l.24,0,0,.24c-3.08,29.88-6.46,62.63-10,96.83l0,.26-.26,0-2.68-.33L237,275.39l-.2,0,0-.2c4.51-30,8.16-54.33,10.69-71.18,1.27-8.4,2.26-14.93,2.93-19.37.34-2.21.6-3.89.77-5s.28-1.7.28-1.7-.08.6-.24,1.74-.41,2.85-.73,5.07c-.65,4.46-1.61,11-2.84,19.43-2.48,16.83-6.06,41.14-10.47,71.1l-.17-.22,186.87,22.57,2.68.32-.29.23c3.54-34.19,6.93-66.95,10-96.82l.21.27-133-17-38.26-4.91L255,178.36,252.4,178Z" style="fill:#263238"></path><path d="M272.8,206.92a12.08,12.08,0,0,1-3.61-.18,12.23,12.23,0,0,1-3.55-.7,12.72,12.72,0,0,1,3.61.19A13.08,13.08,0,0,1,272.8,206.92Z" style="fill:#263238"></path><path d="M401,222.92c0,.14-27.42-3.11-61.2-7.27s-61.16-7.64-61.14-7.78,27.41,3.11,61.2,7.26S401,222.77,401,222.92Z" style="fill:#263238"></path><path d="M421.17,225.17a50.49,50.49,0,0,1-7.3-.63,51.62,51.62,0,0,1-7.23-1.15,50.68,50.68,0,0,1,7.3.63A53.44,53.44,0,0,1,421.17,225.17Z" style="fill:#e0e0e0"></path><path d="M279.29,215a9.73,9.73,0,0,1-3.17-.13,10,10,0,0,1-3.12-.64,9.62,9.62,0,0,1,3.18.12A10,10,0,0,1,279.29,215Z" style="fill:#e0e0e0"></path><path d="M341.17,222.12c0,.14-12.66-1.3-28.23-3.21s-28.19-3.59-28.17-3.73,12.66,1.3,28.24,3.21S341.19,222,341.17,222.12Z" style="fill:#263238"></path><path d="M419.05,231.7c0,.14-16.21-1.73-36.15-4.19s-36.11-4.55-36.09-4.7S363,224.54,383,227,419.06,231.56,419.05,231.7Z" style="fill:#92E3A9"></path><path d="M280.23,221.63a19.79,19.79,0,0,1-4.58-.3,20.12,20.12,0,0,1-4.53-.82,21,21,0,0,1,4.59.31A20.14,20.14,0,0,1,280.23,221.63Z" style="fill:#263238"></path><path d="M319.69,226.71c0,.15-7.61-.67-16.95-1.82s-16.91-2.2-16.89-2.34,7.6.67,16.95,1.82S319.7,226.57,319.69,226.71Z" style="fill:#e0e0e0"></path><path d="M271.25,226.64a16.33,16.33,0,0,1-4-.24,15.89,15.89,0,0,1-4-.75,16,16,0,0,1,4,.23A15.62,15.62,0,0,1,271.25,226.64Z" style="fill:#263238"></path><path d="M323.53,233.07c0,.14-10.52-1-23.46-2.63s-23.41-3-23.39-3.14,10.51,1,23.46,2.63S323.55,232.92,323.53,233.07Z" style="fill:#92E3A9"></path><path d="M410.92,244c0,.14-19-2.07-42.33-4.94s-42.28-5.32-42.27-5.46,19,2.07,42.34,4.94S410.94,243.9,410.92,244Z" style="fill:#263238"></path><path d="M269.45,234.1a12.48,12.48,0,0,1-3.61-.18,12.34,12.34,0,0,1-3.55-.7,24.87,24.87,0,0,1,7.16.88Z" style="fill:#e0e0e0"></path><path d="M327,241c0,.14-11.44-1.14-25.51-2.88S276,234.82,276,234.68s11.44,1.15,25.52,2.88S327,240.81,327,241Z" style="fill:#263238"></path><path d="M418.94,252.27c0,.14-19-2.08-42.33-5s-42.29-5.32-42.27-5.46,19,2.07,42.33,4.94S419,252.12,418.94,252.27Z" style="fill:#92E3A9"></path><path d="M268.17,241a12.72,12.72,0,0,1-3.61-.19,12.86,12.86,0,0,1-3.55-.69,12.08,12.08,0,0,1,3.61.18A12.23,12.23,0,0,1,268.17,241Z" style="fill:#92E3A9"></path><path d="M394.53,255.59c0,.15-26.74-3-59.69-7.07s-59.64-7.46-59.62-7.6S302,244,334.91,248,394.54,255.45,394.53,255.59Z" style="fill:#92E3A9"></path><path d="M275.67,248a14.88,14.88,0,0,1-3.83-.21,14.38,14.38,0,0,1-3.76-.73,14.36,14.36,0,0,1,3.83.21A13.91,13.91,0,0,1,275.67,248Z" style="fill:#263238"></path><path d="M327.22,255c0,.15-10.09-1-22.48-2.5s-22.44-2.88-22.43-3,10.09,1,22.49,2.5S327.23,254.86,327.22,255Z" style="fill:#e0e0e0"></path><path d="M410.52,265.25c0,.14-17.91-1.94-39.95-4.65s-39.9-5-39.88-5.17,17.9,1.94,39.95,4.65S410.53,265.11,410.52,265.25Z" style="fill:#263238"></path><path d="M275.66,255.22a15.41,15.41,0,0,1-3.93-.22,15.6,15.6,0,0,1-3.88-.74,15.49,15.49,0,0,1,3.94.22A15.32,15.32,0,0,1,275.66,255.22Z" style="fill:#263238"></path><path d="M294.29,257.74a48.25,48.25,0,0,1-7-.6,47.31,47.31,0,0,1-6.91-1.11,46.6,46.6,0,0,1,7,.6A47.63,47.63,0,0,1,294.29,257.74Z" style="fill:#e0e0e0"></path><path d="M391.77,269.05c0,.14-15.47-1.64-34.52-4s-34.48-4.36-34.46-4.5,15.47,1.64,34.52,4S391.79,268.91,391.77,269.05Z" style="fill:#92E3A9"></path><polygon points="216.82 84.75 216.97 186.51 400.84 188.71 400.82 84.97 216.82 84.75" style="fill:#fafafa"></polygon><path d="M216.82,84.75h3.46l10.09,0,38,0,132.49,0h.24V85c0,31.65,0,66.37,0,102.68V189h-.26L217,186.71h-.2V112.1c0-8.8,0-15.64,0-20.29,0-2.31,0-4.08,0-5.27s0-1.79,0-1.79,0,.63,0,1.83,0,3,0,5.31c0,4.66,0,11.52.08,20.33,0,17.61.12,43,.21,74.29l-.2-.2,183.88,2.14-.27.26V85l.24.24-132.33-.27-38-.11-10.13,0h-2.62Z" style="fill:#263238"></path><path d="M237,103.73l-3.44,1.32,3.44,1.33v.81l-4.34-1.72v-.83l4.34-1.72Z" style="fill:#263238"></path><path d="M240.54,100.29h.85l-3.2,9.12h-.84Z" style="fill:#263238"></path><path d="M246,104.64v.83l-4.34,1.72v-.81l3.45-1.33-3.45-1.32v-.81Z" style="fill:#263238"></path><path d="M247.12,107.83a.64.64,0,0,1,.65-.65.63.63,0,0,1,.64.65.65.65,0,0,1-.64.67A.65.65,0,0,1,247.12,107.83Z" style="fill:#263238"></path><path d="M249.32,107.83a.65.65,0,1,1,1.3,0,.65.65,0,1,1-1.3,0Z" style="fill:#263238"></path><path d="M251.52,107.83a.65.65,0,1,1,1.3,0,.65.65,0,1,1-1.3,0Z" style="fill:#263238"></path><path d="M241.4,118.18a22.89,22.89,0,0,1-6.88,0,22.89,22.89,0,0,1,6.88,0Z" style="fill:#263238"></path><path d="M364.56,118.39c0,.14-26.31.26-58.76.26s-58.78-.12-58.78-.26,26.31-.26,58.78-.26S364.56,118.25,364.56,118.39Z" style="fill:#263238"></path><path d="M383.94,118.18a93.82,93.82,0,0,1-14,0,93.82,93.82,0,0,1,14,0Z" style="fill:#e0e0e0"></path><path d="M248.48,124.85a17.67,17.67,0,0,1-6,0,17.67,17.67,0,0,1,6,0Z" style="fill:#e0e0e0"></path><path d="M307.88,124.43c0,.15-12.13.26-27.09.26s-27.1-.11-27.1-.26,12.13-.26,27.1-.26S307.88,124.29,307.88,124.43Z" style="fill:#263238"></path><path d="M382.69,124.43c0,.15-15.53.26-34.69.26s-34.7-.11-34.7-.26,15.53-.26,34.7-.26S382.69,124.29,382.69,124.43Z" style="fill:#92E3A9"></path><path d="M250.15,130.89a36.94,36.94,0,0,1-8.75,0,36.94,36.94,0,0,1,8.75,0Z" style="fill:#263238"></path><path d="M288.08,131.1c0,.15-7.28.26-16.26.26s-16.25-.11-16.25-.26,7.28-.26,16.25-.26S288.08,131,288.08,131.1Z" style="fill:#e0e0e0"></path><path d="M242.23,136.52a28.71,28.71,0,0,1-7.71,0,28.71,28.71,0,0,1,7.71,0Z" style="fill:#263238"></path><path d="M292.46,136.52c0,.14-10.08.26-22.51.26s-22.51-.12-22.51-.26,10.08-.26,22.51-.26S292.46,136.38,292.46,136.52Z" style="fill:#92E3A9"></path><path d="M376.44,136.73c0,.14-18.19.26-40.63.26s-40.64-.12-40.64-.26,18.19-.26,40.64-.26S376.44,136.58,376.44,136.73Z" style="fill:#263238"></path><path d="M241.4,143.61a22.89,22.89,0,0,1-6.88,0,22.89,22.89,0,0,1,6.88,0Z" style="fill:#e0e0e0"></path><path d="M296.62,143.4c0,.14-11,.26-24.48.26s-24.49-.12-24.49-.26,11-.26,24.49-.26S296.62,143.25,296.62,143.4Z" style="fill:#263238"></path><path d="M385,143.4c0,.14-18.2.26-40.64.26s-40.64-.12-40.64-.26,18.19-.26,40.64-.26S385,143.25,385,143.4Z" style="fill:#92E3A9"></path><path d="M241,150.07a22.89,22.89,0,0,1-6.88,0,22.89,22.89,0,0,1,6.88,0Z" style="fill:#92E3A9"></path><path d="M362.27,149.23c0,.15-25.66.26-57.31.26s-57.31-.11-57.31-.26S273.3,149,305,149,362.27,149.09,362.27,149.23Z" style="fill:#92E3A9"></path><path d="M248.9,155.69a25.68,25.68,0,0,1-7.29,0,25.68,25.68,0,0,1,7.29,0Z" style="fill:#263238"></path><path d="M298.5,156.32c0,.14-9.66.26-21.57.26s-21.57-.12-21.57-.26,9.66-.26,21.57-.26S298.5,156.17,298.5,156.32Z" style="fill:#e0e0e0"></path><path d="M378.53,156.32c0,.14-17.17.26-38.35.26s-38.35-.12-38.35-.26,17.17-.26,38.35-.26S378.53,156.17,378.53,156.32Z" style="fill:#263238"></path><path d="M249.73,162.36a27.17,27.17,0,0,1-7.5,0,27.17,27.17,0,0,1,7.5,0Z" style="fill:#263238"></path><path d="M267.66,162.57a43.59,43.59,0,0,1-6.67.26,43.48,43.48,0,0,1-6.67-.26,43.48,43.48,0,0,1,6.67-.26A43.59,43.59,0,0,1,267.66,162.57Z" style="fill:#e0e0e0"></path><path d="M361.23,162c0,.14-14.84.26-33.14.26S295,162.09,295,162s14.83-.26,33.13-.26S361.23,161.8,361.23,162Z" style="fill:#92E3A9"></path></g><g id="freepik--Plant--inject-257"><path d="M446.9,395.39a20.32,20.32,0,0,0-33.3,8l2.4,9.32c.92-3.18,2.88-6.24,5.92-7.55s6.81-.59,10,.59,6.4,2.74,9.83,2.95,7.3-1.41,8.33-4.69C451.08,400.91,449.22,397.63,446.9,395.39Z" style="fill:#92E3A9"></path><path d="M446.9,395.39a20.32,20.32,0,0,0-33.3,8l2.4,9.32c.92-3.18,2.88-6.24,5.92-7.55s6.81-.59,10,.59,6.4,2.74,9.83,2.95,7.3-1.41,8.33-4.69C451.08,400.91,449.22,397.63,446.9,395.39Z" style="opacity:0.30000000000000004"></path><path d="M388.83,426.48c-5-4.78-4.78-13.11-2.27-19.58s8-11.44,14.11-14.71a44.66,44.66,0,0,1,38.94-1.26,18.49,18.49,0,0,0-14.95,8.77c-2.75,4.58-3.37,10.14-5.64,15a23.58,23.58,0,0,1-30.19,11.8" style="fill:#92E3A9"></path><path d="M386.41,397.76c-5.57-6.58-6.31-17.14-5.49-25.72s2.81-17.21,1.46-25.72c-.81-5.05-2.76-9.86-3.42-14.92s.27-10.79,4.2-14.06c4.51-3.76,11.61-2.87,16.3.66s7.41,9.06,9.39,14.59c4.36,12.13,6,25.58,2.38,38s-12,23.46-24.33,27.2" style="fill:#92E3A9"></path><path d="M383.74,451.71a4.33,4.33,0,0,1,0-.75c0-.5,0-1.23,0-2.18.07-1.88.25-4.61.67-8a108.82,108.82,0,0,1,2.14-11.67,53.84,53.84,0,0,1,5.33-13.5,56.36,56.36,0,0,1,17.81-19.21c1.4-1,2.74-1.69,3.9-2.37s2.23-1.14,3.08-1.55l2-.84a3.42,3.42,0,0,1,.71-.26,6.5,6.5,0,0,1-.67.35l-2,.92c-.83.43-1.85,1-3,1.6s-2.47,1.45-3.84,2.42a57.34,57.34,0,0,0-17.6,19.16c-5.12,9-6.53,18.39-7.54,25-.46,3.34-.7,6.05-.82,7.93-.06.91-.1,1.63-.13,2.17A5.63,5.63,0,0,1,383.74,451.71Z" style="fill:#263238"></path><path d="M335.69,371.81c-10.31,6.22-10.28,11.88-8.56,17.23s8.05,9,13.29,7c3-1.13,5.12-3.71,6.95-6.3s3.56-5.36,6.13-7.22a9,9,0,0,1,6.15-1.75Z" style="fill:#92E3A9"></path><path d="M359.65,380.82l2.73,1A5.84,5.84,0,0,0,359.65,380.82Z" style="fill:#92E3A9"></path><path d="M359.65,380.82l2.73,1A5.84,5.84,0,0,0,359.65,380.82Z"></path><path d="M335.69,371.81c-10.31,6.22-10.28,11.88-8.56,17.23s8.05,9,13.29,7c3-1.13,5.12-3.71,6.95-6.3s3.56-5.36,6.13-7.22a9,9,0,0,1,6.15-1.75Z" style="opacity:0.30000000000000004"></path><path d="M328,378.63c2.69-3.72,9.35-4.8,13.56-2.94s7.28,5.54,10,9.22,5.44,7.56,9.25,10.12,9.16,3.49,13,.91a11.12,11.12,0,0,0,4.4-7.62,25.25,25.25,0,0,0-.6-9c-.91-4.32-2.4-8.84-5.85-11.58-3.86-3.07-9.21-3.21-14.13-3.05-5.65.19-11.38.61-16.68,2.57s-10.7,6.18-12.95,11.36" style="fill:#92E3A9"></path><path d="M375.17,443.46a.72.72,0,0,1,0-.23q0-.25,0-.66L375,440c-.06-2.26-.16-5.47-.27-9.41s-.29-8.7-.57-13.94-.69-11-1.48-17A55.29,55.29,0,0,0,371,391a45.23,45.23,0,0,0-3.16-7.56,43.5,43.5,0,0,0-4-6.25,41.29,41.29,0,0,0-4.35-4.78,31.84,31.84,0,0,0-7.72-5.26c-.5-.23-.94-.46-1.34-.62l-1-.39-.62-.25-.21-.1s.08,0,.22.06l.64.2,1,.35c.41.15.85.37,1.37.59a30.64,30.64,0,0,1,7.85,5.18,40,40,0,0,1,4.44,4.78,44.22,44.22,0,0,1,4.06,6.29,44.93,44.93,0,0,1,3.21,7.63,54.81,54.81,0,0,1,1.74,8.71c.79,6,1.17,11.79,1.44,17s.39,10,.48,14,.11,7.19.12,9.42v2.56c0,.27,0,.48,0,.66A.6.6,0,0,1,375.17,443.46Z" style="fill:#263238"></path><path d="M378.88,448.12a29.1,29.1,0,0,1-1.13-4.43,46.3,46.3,0,0,1-.47-12.44,82.25,82.25,0,0,1,3.93-18c2.11-6.63,5-13.72,7.44-21.35a99.15,99.15,0,0,0,3-11.29,100.18,100.18,0,0,0,1.46-10.78,156.67,156.67,0,0,0,.33-18.43c-.18-5.24-.46-9.49-.63-12.42-.09-1.45-.16-2.58-.2-3.38,0-.37,0-.66,0-.88a1.13,1.13,0,0,1,0-.3,1.4,1.4,0,0,1,0,.3c0,.22.05.51.09.87.07.8.16,1.93.29,3.37.23,2.93.55,7.18.77,12.43a151.46,151.46,0,0,1-.23,18.48,99,99,0,0,1-1.44,10.83,97.86,97.86,0,0,1-3,11.34c-2.46,7.65-5.35,14.73-7.48,21.34a83.87,83.87,0,0,0-4,17.94,48.3,48.3,0,0,0,.33,12.38c.25,1.44.48,2.56.69,3.31.08.35.15.63.2.85A1.05,1.05,0,0,1,378.88,448.12Z" style="fill:#263238"></path><polygon points="404.44 452.77 356.04 452.77 354.93 443.46 404.44 443.46 404.44 452.77" style="fill:#455a64"></polygon><polygon points="361.23 451.71 367.28 479.66 393.58 479.66 399.24 451.71 361.23 451.71" style="fill:#455a64"></polygon><path d="M404.44,452.77c0,.13-10.65.2-23.77.17s-23.77-.17-23.77-.3,10.64-.2,23.77-.16S404.44,452.65,404.44,452.77Z" style="fill:#455a64"></path><path d="M396.13,466.57a19.73,19.73,0,0,0-4.26-2.45,15.45,15.45,0,0,0-5.19-1,18.5,18.5,0,0,0-6.37,1.17c-2.21.75-4.27,1.62-6.27,2.1a15,15,0,0,1-5.42.16,11.37,11.37,0,0,1-3.49-1.1,7.42,7.42,0,0,1-.84-.54c-.18-.13-.27-.21-.26-.23s.41.24,1.18.6a12.1,12.1,0,0,0,3.45.95,15.13,15.13,0,0,0,5.28-.26c1.94-.48,4-1.36,6.22-2.11a18,18,0,0,1,6.53-1.16,14.82,14.82,0,0,1,5.3,1.16,14.12,14.12,0,0,1,3.15,1.84,9.22,9.22,0,0,1,.75.65C396.06,466.47,396.14,466.56,396.13,466.57Z" style="fill:#263238"></path><path d="M395.76,468.43a21.46,21.46,0,0,0-4.09-2.41,13.92,13.92,0,0,0-5-1,18.14,18.14,0,0,0-6.16,1.11c-2.14.72-4.14,1.54-6.05,2.06a15.55,15.55,0,0,1-5.21.58,8.82,8.82,0,0,1-3.41-.91,6.39,6.39,0,0,1-.82-.52c-.17-.13-.26-.21-.25-.22s.4.23,1.14.58a9.57,9.57,0,0,0,3.36.75,16.19,16.19,0,0,0,5.08-.67c1.87-.53,3.85-1.36,6-2.08a17.7,17.7,0,0,1,6.32-1.1,13.61,13.61,0,0,1,5.11,1.15,13.93,13.93,0,0,1,3,1.83c.32.26.56.48.72.63S395.77,468.42,395.76,468.43Z" style="fill:#fff"></path><path d="M396.61,464.71a23.41,23.41,0,0,0-4.38-2.57,15.8,15.8,0,0,0-5.31-1.28,17.06,17.06,0,0,0-6.58,1.16,60.27,60.27,0,0,1-6.49,2.12,16.65,16.65,0,0,1-5.6,0,13,13,0,0,1-3.6-1.14,6.66,6.66,0,0,1-.87-.54q-.28-.21-.27-.24s.42.25,1.22.62a13.89,13.89,0,0,0,3.57,1,17.23,17.23,0,0,0,5.47-.11,65.17,65.17,0,0,0,6.42-2.14,17.33,17.33,0,0,1,6.75-1.15,16,16,0,0,1,5.42,1.41,15.67,15.67,0,0,1,3.23,1.94,10.18,10.18,0,0,1,.78.67C396.54,464.61,396.62,464.7,396.61,464.71Z" style="fill:#fff"></path><path d="M404.86,452.81c0,.13-10.88.23-24.31.23s-24.32-.1-24.32-.23,10.89-.23,24.32-.23S404.86,452.69,404.86,452.81Z" style="fill:#263238"></path></g><g id="freepik--Character--inject-257"><path d="M144.62,439.82l-.78,37.61,49.51,1.17c-.18-4.48-25.55-14.06-25.55-14.06l1.55-24.08Z" style="fill:#92E3A9"></path><g style="opacity:0.6000000000000001"><path d="M152.54,462.15a1.92,1.92,0,0,0-1.45,2.15,1.94,1.94,0,0,0,2.24,1.38,2,2,0,0,0,1.53-2.28,2.06,2.06,0,0,0-2.5-1.19" style="fill:#fff"></path></g><g style="opacity:0.6000000000000001"><path d="M143.84,477.43l.23-3.79,47.38,2.54s2.18.95,1.9,2.42Z" style="fill:#fff"></path></g><path d="M168.61,464.32c0,.23-1.23.31-2.44,1s-1.87,1.66-2.09,1.56.18-1.41,1.66-2.24S168.66,464.11,168.61,464.32Z" style="fill:#263238"></path><path d="M173.75,466.48c.05.22-1,.58-1.86,1.53s-1.11,2-1.35,1.95-.36-1.31.72-2.47S173.75,466.26,173.75,466.48Z" style="fill:#263238"></path><path d="M176.54,472.42c-.22,0-.53-1.11.13-2.34s1.79-1.71,1.89-1.52-.62.85-1.14,1.87S176.78,472.4,176.54,472.42Z" style="fill:#263238"></path><path d="M168.32,458.8c-.11.2-1.21-.14-2.58-.08s-2.45.44-2.57.24.93-1,2.54-1S168.44,458.62,168.32,458.8Z" style="fill:#263238"></path><path d="M167.28,453.22a5,5,0,0,1-2.48-.07,11.42,11.42,0,0,1-2.57-.82,11.27,11.27,0,0,1-1.41-.74,3.17,3.17,0,0,1-.73-.57,1,1,0,0,1-.08-1.22,1.37,1.37,0,0,1,1.07-.5,3.48,3.48,0,0,1,.93.15,9.48,9.48,0,0,1,1.53.53,8.94,8.94,0,0,1,2.25,1.47c1.12,1,1.49,1.9,1.41,1.94s-.66-.65-1.8-1.51a10,10,0,0,0-2.18-1.23,9.45,9.45,0,0,0-1.42-.45c-.52-.14-1-.16-1.1.06s-.06.12.05.26a2,2,0,0,0,.53.42,13.35,13.35,0,0,0,1.3.74,14.25,14.25,0,0,0,2.37.92A18.23,18.23,0,0,1,167.28,453.22Z" style="fill:#263238"></path><path d="M167,453.54a3.53,3.53,0,0,1-.59-2.28,7.16,7.16,0,0,1,.4-2.56,8.11,8.11,0,0,1,.67-1.4,2,2,0,0,1,1.61-1.15,1.14,1.14,0,0,1,1,.68,2.84,2.84,0,0,1,.23.86,4.89,4.89,0,0,1,0,1.58,5.26,5.26,0,0,1-1.12,2.4,3.28,3.28,0,0,1-2,1.36c-.08-.12.77-.54,1.54-1.69a5.19,5.19,0,0,0,.85-2.18,4.78,4.78,0,0,0,0-1.36c-.07-.5-.25-.9-.45-.86s-.68.36-.89.75a7.18,7.18,0,0,0-.65,1.26,8,8,0,0,0-.54,2.32C166.86,452.65,167.09,453.51,167,453.54Z" style="fill:#263238"></path><path d="M107.1,442.94l-4.73,37.32-49.15-6.1c.83-4.4,27.34-10.15,27.34-10.15l2-24.05Z" style="fill:#92E3A9"></path><g style="opacity:0.6000000000000001"><path d="M96,463.88a1.91,1.91,0,0,1,1.12,2.34,1.94,1.94,0,0,1-2.42,1,2,2,0,0,1-1.17-2.48,2,2,0,0,1,2.64-.81" style="fill:#fff"></path></g><g style="opacity:0.6000000000000001"><path d="M102.37,480.26l.32-3.78-47.24-4.43s-2.3.63-2.23,2.11Z" style="fill:#fff"></path></g><path d="M79.79,463.67c0,.23,1.17.48,2.26,1.36s1.6,1.9,1.84,1.84,0-1.42-1.31-2.46S79.76,463.46,79.79,463.67Z" style="fill:#263238"></path><path d="M74.39,465.05c-.08.21.91.72,1.61,1.78s.81,2.11,1,2.13.55-1.25-.35-2.55S74.42,464.83,74.39,465.05Z" style="fill:#263238"></path><path d="M70.75,470.52c.22.07.69-1,.22-2.34s-1.53-1.95-1.65-1.78.49.93.85,2S70.52,470.46,70.75,470.52Z" style="fill:#263238"></path><path d="M80.89,458.25c.07.22,1.21,0,2.56.3s2.35.79,2.5.61-.77-1.12-2.36-1.4S80.79,458.05,80.89,458.25Z" style="fill:#263238"></path><path d="M82.72,452.88a5,5,0,0,0,2.47.29,11.33,11.33,0,0,0,2.66-.43,10.36,10.36,0,0,0,1.5-.53,2.89,2.89,0,0,0,.81-.45,1,1,0,0,0,.26-1.2,1.39,1.39,0,0,0-1-.65,3.64,3.64,0,0,0-.94,0,8.78,8.78,0,0,0-1.59.31,8.66,8.66,0,0,0-2.44,1.12c-1.26.86-1.75,1.66-1.68,1.71s.75-.55,2-1.23a9.86,9.86,0,0,1,2.33-.9,9.42,9.42,0,0,1,1.47-.23c.53-.07,1,0,1.08.22,0,.09,0,.12-.08.25a2.21,2.21,0,0,1-.6.33,12.77,12.77,0,0,1-1.38.55,14.85,14.85,0,0,1-2.49.56A19.11,19.11,0,0,0,82.72,452.88Z" style="fill:#263238"></path><path d="M83,453.24c.08.05.65-.7.92-2.16a7.08,7.08,0,0,0,0-2.59,7.23,7.23,0,0,0-.45-1.49A2,2,0,0,0,82,445.63a1.16,1.16,0,0,0-1.11.52,3,3,0,0,0-.35.82,5.06,5.06,0,0,0-.2,1.57,5.36,5.36,0,0,0,.76,2.53c.82,1.32,1.79,1.72,1.82,1.65s-.69-.65-1.29-1.9a5.25,5.25,0,0,1-.51-2.28,4.51,4.51,0,0,1,.21-1.34c.13-.49.38-.86.57-.78s.61.45.77.86a7.28,7.28,0,0,1,.45,1.34,7.85,7.85,0,0,1,.2,2.38C83.23,452.38,82.87,453.19,83,453.24Z" style="fill:#263238"></path><path d="M187.57,240.05l-81.63,2.61S87.78,364,88.28,372.41l-11.21,88,32.6,1.15s5.13-28.54,8.71-48.07c2.38-13,6.72-32.07,7.9-42.92S143.7,285,143.7,285s1.41,86.88,1.44,90.49-3.76,86-3.76,86h32.37c1.67-14.87,5.64-74.34,6.5-86.37,1.54-21.69,9.13-84.13,9.84-99.79S187.57,240.05,187.57,240.05Z" style="fill:#263238"></path><path d="M118.33,253.07a25.27,25.27,0,0,1-.23-7.57,13.05,13.05,0,0,1,.4,3.78A12.81,12.81,0,0,1,118.33,253.07Z" style="fill:#455a64"></path><path d="M121.31,252.19a18.48,18.48,0,0,1,.6-6.4,18.48,18.48,0,0,1-.6,6.4Z" style="fill:#455a64"></path><path d="M171.12,252.19a13.74,13.74,0,0,1,0-5.52,13.74,13.74,0,0,1,0,5.52Z" style="fill:#455a64"></path><path d="M174.32,253.65a7.34,7.34,0,0,1-.31-3.54,7.18,7.18,0,0,1,.9-3.44,29.2,29.2,0,0,1-.34,3.48A23.81,23.81,0,0,1,174.32,253.65Z" style="fill:#455a64"></path><path d="M148.32,283.09a6.62,6.62,0,0,1,.19-1.42c.17-1,.39-2.31.66-3.84.53-3.24,1.16-7.74,1.57-12.73s.5-9.53.49-12.82c0-1.55,0-2.86,0-3.89a7.29,7.29,0,0,1,.05-1.43,6.61,6.61,0,0,1,.17,1.42c.09.92.16,2.25.21,3.9a117.56,117.56,0,0,1-.33,12.87,119.2,119.2,0,0,1-1.74,12.75c-.32,1.62-.61,2.92-.84,3.81A7.16,7.16,0,0,1,148.32,283.09Z" style="fill:#455a64"></path><path d="M145.53,247.87a3,3,0,0,0-1.63.91,2.28,2.28,0,0,0-.53,1.83,2.12,2.12,0,0,0,3.69.7,2.24,2.24,0,0,0,.17-1.89,3,3,0,0,0-1.18-1.45s.22,0,.54.14a2.37,2.37,0,0,1,1,1.17,2.61,2.61,0,0,1-.11,2.3,2.6,2.6,0,0,1-4.65-.88,2.63,2.63,0,0,1,.75-2.18,2.4,2.4,0,0,1,1.37-.72C145.34,247.77,145.53,247.85,145.53,247.87Z" style="fill:#455a64"></path><path d="M110,381.74a70.12,70.12,0,0,1-8.25-3.09,67.82,67.82,0,0,1-8-3.61,70.87,70.87,0,0,1,8.25,3.09A67.82,67.82,0,0,1,110,381.74Z" style="fill:#455a64"></path><path d="M167.76,139.76s11.65,3.5,13.19,9.85c1.86,7.73,12.42,59.45,12.42,59.45l37.94-9.37,9,10s-34.55,27-46.53,27c-10,0-18.8-7.66-18.8-7.66l-12.85-37.13Z" style="fill:#455a64"></path><path d="M92.76,147.59l-7.14,4.8,19.55,77.85-.79,31.33c5.14,4.48,9.22,12,33.83,10.58s43-16.5,43-16.5l-10.77-40.56-3.08-47.81.36-27.52-25-5.08-28.52,2.43Z" style="fill:#455a64"></path><path d="M168.75,202c-.17,0-.32-9.71-.33-21.68s.11-21.68.28-21.68.31,9.71.33,21.68S168.91,202,168.75,202Z" style="fill:#263238"></path><g style="opacity:0.30000000000000004"><path d="M132.53,239.7a8.14,8.14,0,0,0-2.29-4.1c-1.39-1.09-3.28-1.16-5-1.18l-21.51-.3,1.4,1.62c5.77,5.33,14.17,8.81,22,8.51a227.8,227.8,0,0,0,15.8,27.56Q137.71,255.76,132.53,239.7Z"></path></g><path d="M153.49,211.14a11.12,11.12,0,0,1-1.18,0c-.53-1.67-1-3.19-1.51-4.68a32.13,32.13,0,1,0-48.21,37.65c11.72,7.87,27.7,8,37.77-1.7,7.29-7,15.73-5.88,26.7-9.36l74.51-54.48C235,183.68,160.55,210.07,153.49,211.14Zm-23.41,14.3a15.32,15.32,0,0,1-21.85-2.95,15.62,15.62,0,0,1,2.85-21.56,15.86,15.86,0,0,1,22,2.95A15.67,15.67,0,0,1,130.08,225.44Z" style="fill:#92E3A9"></path><path d="M260,196.52c2.84-1.26,5.33-3.61,7.59-5.86,7.09-7.07,10.08-15.5,8.27-26-21.65,8.75-50.79,20.89-71.72,29.52L193.77,224.8C212.53,216.77,242.44,204.28,260,196.52Z" style="fill:#92E3A9"></path><g style="opacity:0.30000000000000004"><path d="M260,196.52c2.84-1.26,5.33-3.61,7.59-5.86,7.09-7.07,10.08-15.5,8.27-26-21.65,8.75-50.79,20.89-71.72,29.52L193.77,224.8C212.53,216.77,242.44,204.28,260,196.52Z"></path></g><path d="M181.7,239.57a5.92,5.92,0,0,1,.78-1l2.37-2.75,8.84-10c7.48-8.45,17.85-20.09,29.63-32.66l30.09-32.25,9.19-9.71,2.53-2.6a7.34,7.34,0,0,1,.93-.87,6.86,6.86,0,0,1-.8,1c-.72.82-1.51,1.72-2.41,2.72q-3.66,4-9,9.9L224,193.73c-16.1,17.18-25.78,28.05-29.82,32.48l-9,9.83-2.5,2.64A7,7,0,0,1,181.7,239.57Z" style="fill:#263238"></path><path d="M178.31,243.83,266,148.15c-6.14-2.4-10.66-3.85-15.77-3.86-10.51,0-19.67,6.67-26.62,13.94-8.14,8.52-21.56,23.31-29.62,31.9l-8.22,9.18-19.28,21.06c-4,4.34-7,8-10.48,11.27a14.91,14.91,0,0,1-6.68,3.68A32.13,32.13,0,1,0,181.41,248C180.41,246.6,179.37,245.24,178.31,243.83ZM160,281.76a15.6,15.6,0,0,1-19.29-10,15.34,15.34,0,0,1,10.12-19.59A15.67,15.67,0,0,1,170.23,262,15.85,15.85,0,0,1,160,281.76Z" style="fill:#92E3A9"></path><path d="M155.45,235.73c0,.12-2-.18-5.28.11a23.29,23.29,0,0,0-2.63.39c-.46.11-1,.18-1.45.31l-1.5.44a29.85,29.85,0,0,0-6.33,2.91,32.25,32.25,0,0,0-5.44,4.36c-.74.79-1.46,1.52-2,2.28a25.66,25.66,0,0,0-1.6,2.12c-1.84,2.7-2.65,4.57-2.75,4.52a8,8,0,0,1,.54-1.32,15.17,15.17,0,0,1,.76-1.49,21.22,21.22,0,0,1,1.14-1.91,25.43,25.43,0,0,1,1.57-2.19,29.68,29.68,0,0,1,2-2.34,31.44,31.44,0,0,1,5.51-4.47,28.35,28.35,0,0,1,6.47-2.93l1.54-.42c.5-.13,1-.2,1.47-.29a23.75,23.75,0,0,1,4.9-.39,15.17,15.17,0,0,1,1.68.1A6.84,6.84,0,0,1,155.45,235.73Z" style="fill:#263238"></path><g style="opacity:0.30000000000000004"><path d="M93.91,232.61h0a2.27,2.27,0,0,0,1,2.38c5.25,3.4,11.74,4.5,18,5.49,19.69,3.13,39.44,6.26,59.36,7a8.24,8.24,0,0,0,4.33-.64,5.26,5.26,0,0,0,1.83-1.83,2.25,2.25,0,0,0-1.45-3.42,620.75,620.75,0,0,0-80.68-10.74A2.24,2.24,0,0,0,93.91,232.61Z"></path></g><path d="M158.74,228.73a16.27,16.27,0,0,1,1.72-2.14l4.93-5.6,16.53-18.24,16.72-18.07,5.14-5.4a15.68,15.68,0,0,1,2-1.89,16.7,16.7,0,0,1-1.72,2.13l-4.93,5.6-16.53,18.24-16.71,18.06-5.14,5.41A16,16,0,0,1,158.74,228.73Z" style="fill:#263238"></path><path d="M196.27,214.21c-.06,0,0-.67-.34-1.81a7.48,7.48,0,0,0-2.74-4,7.19,7.19,0,0,0-3.09-1.34,7.33,7.33,0,0,0-3.82.33,7.28,7.28,0,0,0,0,13.66,7.33,7.33,0,0,0,3.82.33,7.19,7.19,0,0,0,3.09-1.34,7.48,7.48,0,0,0,2.74-4c.31-1.14.28-1.81.34-1.81a2.49,2.49,0,0,1,0,.48,5.84,5.84,0,0,1-.16,1.38,7.63,7.63,0,0,1-5.95,5.73,7.73,7.73,0,0,1-7.68-3,7.81,7.81,0,0,1-1.51-4.59,7.73,7.73,0,0,1,1.52-4.59,7.65,7.65,0,0,1,10.9-1.52,7.47,7.47,0,0,1,2.72,4.25,5.84,5.84,0,0,1,.16,1.38A2.49,2.49,0,0,1,196.27,214.21Z" style="fill:#263238"></path><path d="M190.48,221.23a70.49,70.49,0,0,1-1.54-7c-.8-3.86-1.51-7-1.37-7a8.25,8.25,0,0,1,.69,2c.35,1.25.78,3,1.19,4.92s.69,3.7.87,5A8.24,8.24,0,0,1,190.48,221.23Z" style="fill:#263238"></path><path d="M195.78,212.2a51.54,51.54,0,0,1-7,2.26,51,51,0,0,1-7.13,1.77,52.48,52.48,0,0,1,7-2.27A51.67,51.67,0,0,1,195.78,212.2Z" style="fill:#263238"></path><path d="M111.77,74.47c.24-4.22,2.84-6.82,6.48-9a13.21,13.21,0,0,1,12.19-.55c2.56,1.21,4.8,3.29,7.61,3.65,4.62.6,9-3.68,13.54-2.61a6,6,0,0,1-.44,11.79c3,.44,4.74,4.27,3.62,7.12s-4.3,4.5-7.36,4.57a17,17,0,0,1-8.64-2.72c-2.65-1.54-5.12-3.39-7.88-4.71s-5.94-2.09-8.9-1.3c-4,1.06-6.84,4.84-7.88,8.85s-.59,8.25,0,12.34,1.41,8.23,1,12.35a1.55,1.55,0,0,1-.58,1.28c-.62.34-1.32-.24-1.77-.78a60.63,60.63,0,0,1-11.43-20.71c-1.4-4.39-2.17-8.66-.49-13s7.33-8.38,10.88-6.64" style="fill:#263238"></path><path d="M107.87,94.9l6.77,41.76c1.27,7.8,6.33,15.34,18.57,12.78h0c10.45-3,9.68-10.54,8.32-19.81h0S153,126.64,152,115c-.5-5.65-2.47-17.21-4.37-27.64a21.87,21.87,0,0,0-23.7-17.81l-1.13.12C110.71,71.55,105.61,82.88,107.87,94.9Z" style="fill:#ffbe9d"></path><path d="M141.53,129.63a28.37,28.37,0,0,1-15.66-3s4.58,8.69,16.13,6.47Z" style="fill:#eb996e"></path><path d="M145.72,98.32a1.68,1.68,0,0,1-1.44,1.85,1.6,1.6,0,0,1-1.87-1.33A1.68,1.68,0,0,1,143.84,97,1.61,1.61,0,0,1,145.72,98.32Z" style="fill:#263238"></path><path d="M145.68,93.3c-.18.23-1.54-.57-3.33-.39s-3,1.22-3.24,1,.07-.51.6-1a4.61,4.61,0,0,1,2.56-1.08,4.35,4.35,0,0,1,2.68.58C145.55,92.81,145.78,93.19,145.68,93.3Z" style="fill:#263238"></path><path d="M129.19,99.93a1.68,1.68,0,0,1-1.44,1.85,1.61,1.61,0,0,1-1.87-1.33,1.68,1.68,0,0,1,1.44-1.85A1.6,1.6,0,0,1,129.19,99.93Z" style="fill:#263238"></path><path d="M128.08,95.4c-.19.24-1.54-.57-3.34-.38s-3,1.21-3.23,1,.06-.5.59-1A4.53,4.53,0,0,1,124.67,94a4.42,4.42,0,0,1,2.68.57C127.94,94.92,128.17,95.3,128.08,95.4Z" style="fill:#263238"></path><path d="M135.93,108.06a11.83,11.83,0,0,1,2.86-.82c.45-.1.88-.23.92-.55a2.28,2.28,0,0,0-.44-1.33l-1.7-3.35c-2.39-4.78-4.16-8.73-4-8.82s2.28,3.7,4.66,8.48c.57,1.18,1.12,2.3,1.65,3.38a2.71,2.71,0,0,1,.42,1.77,1.15,1.15,0,0,1-.69.75,3.19,3.19,0,0,1-.77.19A11.79,11.79,0,0,1,135.93,108.06Z" style="fill:#263238"></path><path d="M127.84,88.32c-.13.51-2,.46-4,.92s-3.72,1.22-4,.81c-.14-.2.11-.69.75-1.23a7.12,7.12,0,0,1,6.15-1.31C127.46,87.74,127.89,88.09,127.84,88.32Z" style="fill:#263238"></path><path d="M144.5,88.17c-.27.44-1.55.14-3,.27s-2.72.55-3.05.15c-.15-.19,0-.62.52-1.06a4.4,4.4,0,0,1,4.91-.34C144.41,87.55,144.62,88,144.5,88.17Z" style="fill:#263238"></path><path d="M109.7,103.45c-.21-.06-8.27-1.56-7.21,6.39s8.83,5.26,8.81,5S109.7,103.45,109.7,103.45Z" style="fill:#ffbe9d"></path><path d="M108.47,112.18s-.12.11-.34.25a1.39,1.39,0,0,1-1,.16c-.88-.2-1.76-1.44-2-2.87a4.55,4.55,0,0,1,.12-2,1.65,1.65,0,0,1,.9-1.21.71.71,0,0,1,.87.28c.14.2.11.37.15.38s.15-.16,0-.48a1,1,0,0,0-.38-.46,1.08,1.08,0,0,0-.8-.1,2,2,0,0,0-1.28,1.43,4.77,4.77,0,0,0-.19,2.28c.27,1.6,1.29,3,2.48,3.17a1.49,1.49,0,0,0,1.24-.38C108.48,112.37,108.5,112.19,108.47,112.18Z" style="fill:#eb996e"></path><path d="M146.66,76.42a15.28,15.28,0,0,0-5.47-5.15,26.12,26.12,0,0,0-15.62-3.88,21.28,21.28,0,0,0-14.3,7.11,22.52,22.52,0,0,0-5,11.9,33.06,33.06,0,0,0,1.23,13,9.88,9.88,0,0,0,2.69,5c.91.78,2.38,1.2,3.25.38a3.2,3.2,0,0,0,.74-1.94c.92-6.31,1.77-13.09-1.08-18.79a18.28,18.28,0,0,1,5-5.61,9.52,9.52,0,0,1,7.15-1.72c3.67.74,6.21,4,9.29,6.1a16.92,16.92,0,0,0,15.32,1.87Z" style="fill:#263238"></path><path d="M137.51,112.9a7.88,7.88,0,0,1-.6,2.2,2.7,2.7,0,0,1-1.64,1.48,2.42,2.42,0,0,1-2.23-.68,3.81,3.81,0,0,1-1-2.15c-.12-.72,0-1.65.73-1.88a1.83,1.83,0,0,1,.9,0l4.06.73" style="fill:#eb996e"></path><path d="M136.66,116.3a5.77,5.77,0,0,1-2,.17,2.92,2.92,0,0,1-1.79-1.06,3,3,0,0,1-.56-2.44,2.5,2.5,0,0,1,.2-.62c.12-.19.09-.18.26-.19s.43.08.65.11l.67.12c.87.16,1.65.29,2.31.39a7.2,7.2,0,0,0,2.17.19,7.18,7.18,0,0,0-2.08-.66c-.64-.16-1.42-.34-2.28-.53l-.66-.15c-.24,0-.43-.1-.74-.14a.88.88,0,0,0-.56.14,1,1,0,0,0-.34.41,3.28,3.28,0,0,0-.27.8,3.56,3.56,0,0,0,.74,3,3.26,3.26,0,0,0,2.22,1.14,3.16,3.16,0,0,0,1.63-.28C136.53,116.49,136.68,116.33,136.66,116.3Z" style="fill:#263238"></path><path d="M154.25,67.6a2.09,2.09,0,0,1,.16.52,5.05,5.05,0,0,1,.05,1.57,7.33,7.33,0,0,1-2.88,4.89,10.9,10.9,0,0,1-8.25,1.69c-3.23-.44-6.46-2-9.83-3.38s-6.84-2.33-10-1.76a12.47,12.47,0,0,0-7.09,4.06,16.91,16.91,0,0,0-3,4.74c-.51,1.25-.68,2-.74,2a3.08,3.08,0,0,1,.1-.54,13.2,13.2,0,0,1,.45-1.49,16.16,16.16,0,0,1,3-4.92,12.75,12.75,0,0,1,7.29-4.28c3.24-.62,6.83.34,10.22,1.74s6.58,2.95,9.71,3.4a10.57,10.57,0,0,0,7.95-1.51,7.28,7.28,0,0,0,2.91-4.62A8.12,8.12,0,0,0,154.25,67.6Z" style="fill:#455a64"></path><path d="M102,91.84a5.92,5.92,0,0,1,.31-2.2,13.64,13.64,0,0,1,2.42-4.79,13.14,13.14,0,0,1,2.07-2.13A5,5,0,0,1,109,81.57a2.68,2.68,0,0,1,1.66.19c.36.18.49.37.47.39a3.05,3.05,0,0,0-2-.22c-1.25.32-2.66,1.67-3.92,3.24a15.81,15.81,0,0,0-2.47,4.58C102.22,91,102.09,91.86,102,91.84Z" style="fill:#455a64"></path><path d="M104.11,98.73a6.4,6.4,0,0,1,.45-2.19,14.72,14.72,0,0,1,2.66-4.71,14.93,14.93,0,0,1,4.16-3.45,6.28,6.28,0,0,1,2.08-.83c0,.08-.74.42-1.89,1.15a17.32,17.32,0,0,0-3.95,3.46,17.52,17.52,0,0,0-2.71,4.51A19,19,0,0,1,104.11,98.73Z" style="fill:#455a64"></path><path d="M93,147.59l-6.22,4.2a23.51,23.51,0,0,0-10.32,16.75c-2.11,18.42-3.79,51.66.38,58.56,5.64,9.32,65.76,12.35,65.76,12.35l4-18.63-49-11.28.61-15.49Z" style="fill:#455a64"></path><path d="M98.2,174.3a6.4,6.4,0,0,1,0,.65c0,.46,0,1.09,0,1.9,0,1.66-.08,4.11-.07,7.22,0,6.23.41,15.16,0,25.93l-.2-.25,43.94,9.69,4.86,1.08.29.07-.06.29c-1.42,6.51-2.78,12.77-4.05,18.63l-.06.24h-.24a308.12,308.12,0,0,1-40.45-4.29c-5-.86-8.88-1.67-11.55-2.27-1.34-.3-2.37-.55-3.06-.73l-.78-.21c-.18-.05-.27-.08-.26-.09a1.41,1.41,0,0,1,.27,0l.79.17,3.08.63c2.68.54,6.61,1.29,11.57,2.1a325.34,325.34,0,0,0,40.41,4.07l-.29.23c1.26-5.86,2.62-12.13,4-18.64l.23.37L141.68,220l-43.92-9.8-.21-.05V210c.5-10.75.14-19.67.26-25.91,0-3.12.13-5.56.2-7.23,0-.8.09-1.43.11-1.89A3,3,0,0,1,98.2,174.3Z" style="fill:#263238"></path><path d="M152.94,224.39a14.09,14.09,0,0,1,4.58-4c3.09-1.75,9.21-2.34,10.41-4.38s3,.11,2,2.73c-.67,1.67-5.17,5.49-5.17,5.49s4,1.9,7.1.86,13.48-2,14.25-.38c.87,1.79-1.8,1.79-3,2.19-.93.3-8.08,2.21-8.08,2.21s13,2.18,14.52,3.12-.5,2.23-1.32,2.09c-.52-.08.89,1.64-1,2.78-1.27.78-6.8.86-8.26.59l-3-.56,8.94,2.8s1.28,1.77-1.07,2.07c-1,.14-29.52-1.48-31.69-1.79-3.76-.54-9.07-1.49-9.07-1.49l3-15.41Z" style="fill:#ffbe9d"></path><path d="M228.65,210.33l5.6-3.84s1.85-11.09,4.31-13.36l1.32-1.41s.19-5.55,3.33-6.16c1.25-1.85,2.47-2.44,3.65-1,0,0,.07-4.19,3.94-3.91s1.25,17.52,1.25,17.52.21,8-4.07,7.1c0,0-3,2.16-5.73,1.85,0,0-1.79,4.37-5.48,3.29Z" style="fill:#ffbe9d"></path><path d="M242.11,205s.2.19.32.64a3.19,3.19,0,0,1-.2,1.93,4.4,4.4,0,0,1-1.93,2.14,9,9,0,0,1-3.35,1,21.56,21.56,0,0,1-6.22-.11,7.12,7.12,0,0,1-2.49-.68c0-.19,3.88.8,8.64.19a9,9,0,0,0,3.14-.88,4.07,4.07,0,0,0,1.82-1.81A3.81,3.81,0,0,0,242.11,205Z" style="fill:#eb996e"></path><path d="M246.76,199.68c-.19,0,.55-3.45.61-7.73s-.5-7.73-.32-7.76a7,7,0,0,1,.56,2.23,32.37,32.37,0,0,1-.21,11.05A7.59,7.59,0,0,1,246.76,199.68Z" style="fill:#eb996e"></path><path d="M243.12,200.85c-.18,0,.22-3.43.24-7.64s-.33-7.63-.15-7.65a27.13,27.13,0,0,1,.76,7.65A27.11,27.11,0,0,1,243.12,200.85Z" style="fill:#eb996e"></path><path d="M249.13,202c.16-.06.49,1.12-.16,2.37s-1.8,1.66-1.84,1.5.76-.72,1.3-1.78S249,202,249.13,202Z" style="fill:#eb996e"></path><path d="M238.49,200.51a24.08,24.08,0,0,1,.57-4.24,24.1,24.1,0,0,1,.73-4.22,11.56,11.56,0,0,1-.13,4.31C239.3,198.72,238.65,200.56,238.49,200.51Z" style="fill:#eb996e"></path></g></svg>